Coordinates
version=1
nRows=13
nColumns=40
inDegrees=yes

Units are S.I. units (second, meters, Newtons, ...)
If the header above contains a line with 'inDegrees', this indicates whether rotational values are in degrees (yes) or radians (no).

endheader
time	pelvis_tilt	pelvis_list	pelvis_rotation	pelvis_tx	pelvis_ty	pelvis_tz	hip_flexion_r	hip_adduction_r	hip_rotation_r	knee_angle_r	knee_angle_r_beta	ankle_angle_r	subtalar_angle_r	mtp_angle_r	hip_flexion_l	hip_adduction_l	hip_rotation_l	knee_angle_l	knee_angle_l_beta	ankle_angle_l	subtalar_angle_l	mtp_angle_l	lumbar_extension	lumbar_bending	lumbar_rotation	arm_flex_r	arm_add_r	arm_rot_r	elbow_flex_r	pro_sup_r	wrist_flex_r	wrist_dev_r	arm_flex_l	arm_add_l	arm_rot_l	elbow_flex_l	pro_sup_l	wrist_flex_l	wrist_dev_l
      6.12500000	    -15.74695424	      2.53811340	      0.02827680	     -0.33224566	      0.81070945	     -1.01878718	     21.51775403	     -8.07107612	     -5.52273112	     90.61976667	      1.58161330	    -10.25430904	      0.00000000	      0.00000000	     49.76363363	      3.92762308	     -8.63801296	     61.77755532	      1.07822174	     19.63982047	      0.00000000	      0.00000000	    -10.89679832	     -5.06890748	      3.20509923	     22.97006279	     -8.44100326	      1.86274244	     15.98773104	     81.56781276	      0.00000000	      0.00000000	     17.03985396	    -17.25183631	     11.00551710	     40.80079754	     85.88726742	      0.00000000	      0.00000000
      6.13000000	    -15.48959839	      2.74508004	     -0.11615500	     -0.33121018	      0.81180886	     -1.01918251	     21.35090636	     -8.35037770	     -5.34922535	     90.64167529	      1.58199567	    -10.23690543	      0.00000000	      0.00000000	     49.22897080	      4.03298127	     -8.93538264	     61.44485460	      1.07241502	     19.65551468	      0.00000000	      0.00000000	    -10.95844779	     -5.23718065	      3.23034590	     22.43546092	     -8.47800646	      1.81488405	     15.48174993	     83.04185138	      0.00000000	      0.00000000	     16.22690840	    -16.95616615	     10.41328015	     40.54396545	     85.52437855	      0.00000000	      0.00000000
      6.13500000	    -15.47916033	      2.64822718	     -0.19278710	     -0.33059354	      0.81260657	     -1.01923063	     21.47250779	     -8.22515941	     -5.30248129	     90.66845809	      1.58246312	    -10.24773998	      0.00000000	      0.00000000	     49.07808796	      3.92494017	     -8.88672067	     61.30206420	      1.06992286	     19.64488706	      0.00000000	      0.00000000	    -10.74650361	     -5.12180169	      3.34533239	     21.93341701	     -8.43904163	      1.71439673	     14.82934072	     82.62501477	      0.00000000	      0.00000000	     15.59910405	    -16.77719400	     10.39796246	     40.11405788	     85.51712276	      0.00000000	      0.00000000
      6.14000000	    -15.47053408	      2.66356669	     -0.41933900	     -0.33021216	      0.81338376	     -1.01900241	     21.71456290	     -8.21949715	     -5.12799929	     90.81444016	      1.58501099	    -10.30613449	      0.00000000	      0.00000000	     48.93271465	      3.79573152	     -8.99523987	     61.10446555	      1.06647411	     19.62107693	      0.00000000	      0.00000000	    -10.57904484	     -5.15454047	      3.49941963	     21.48044206	     -8.35032192	      1.39339427	     14.26696279	     82.51375174	      0.00000000	      0.00000000	     14.89678521	    -16.57317136	      9.88176051	     39.84225693	     85.58538750	      0.00000000	      0.00000000
      6.14500000	    -15.21884198	      2.58333414	     -0.30047399	     -0.32954584	      0.81444779	     -1.01933524	     21.49163653	     -8.20883471	     -5.27682542	     90.79716871	      1.58470955	    -10.24929921	      0.00000000	      0.00000000	     48.50542156	      3.83543869	     -8.90822347	     60.92036800	      1.06326100	     19.59593137	      0.00000000	      0.00000000	    -10.65113409	     -5.01938832	      3.45333962	     20.84105640	     -8.45330871	      2.22848002	     13.99579021	     80.42108475	      0.00000000	      0.00000000	     14.48132357	    -16.37299690	      9.92885069	     39.16284801	     85.88468027	      0.00000000	      0.00000000
      6.15000000	    -15.04368781	      2.45733996	     -0.23237939	     -0.32863443	      0.81555905	     -1.01976732	     21.33959960	     -8.19159862	     -5.45784409	     90.73055952	      1.58354700	    -10.35908094	      0.00000000	      0.00000000	     48.11445162	      3.79804434	     -8.85312279	     60.66939422	      1.05888068	     19.54548755	      0.00000000	      0.00000000	    -10.64663929	     -4.81604935	      3.25367793	     20.48527504	     -8.36491077	      1.68244996	     13.28643381	     81.77756094	      0.00000000	      0.00000000	     13.65897380	    -16.05751454	      9.07032882	     38.83527591	     85.66023827	      0.00000000	      0.00000000
      6.15500000	    -15.03259527	      2.36349677	     -0.22340410	     -0.32828026	      0.81632208	     -1.01985801	     21.45695962	     -8.10026107	     -5.51433553	     90.77902594	      1.58439289	    -10.26836797	      0.00000000	      0.00000000	     47.99591028	      3.74522575	     -8.75301440	     60.52885700	      1.05642785	     19.47538165	      0.00000000	      0.00000000	    -10.48236908	     -4.69170362	      3.26032293	     19.93621627	     -8.42315933	      1.82990875	     12.94625626	     82.28462410	      0.00000000	      0.00000000	     13.14242813	    -15.92262617	      9.10777211	     38.41315064	     85.44303814	      0.00000000	      0.00000000
      6.16000000	    -14.91669352	      2.38873725	     -0.40561467	     -0.32764595	      0.81722104	     -1.01967400	     21.49534676	     -8.06582994	     -5.31901077	     90.82647161	      1.58522098	    -10.24209613	      0.00000000	      0.00000000	     47.70126556	      3.62710797	     -8.91352014	     60.33260029	      1.05300252	     19.47854035	      0.00000000	      0.00000000	    -10.39584238	     -4.73443912	      3.42408019	     19.40521263	     -8.39922758	      1.91008806	     12.57865409	     81.65978174	      0.00000000	      0.00000000	     12.60195665	    -15.80088769	      9.14700881	     38.01934142	     85.46644328	      0.00000000	      0.00000000
      6.16500000	    -14.81622085	      2.34124851	     -0.49208361	     -0.32702480	      0.81814386	     -1.01967671	     21.53737121	     -8.03366443	     -5.29820077	     90.85939662	      1.58579563	    -10.28369995	      0.00000000	      0.00000000	     47.44226292	      3.54296220	     -8.94243205	     60.15151521	      1.04984199	     19.44688205	      0.00000000	      0.00000000	    -10.28901106	     -4.66680169	      3.45742772	     18.87360594	     -8.40307573	      2.10738626	     12.28037746	     81.11538024	      0.00000000	      0.00000000	     12.03334312	    -15.63732122	      9.00920319	     37.51304941	     85.51557660	      0.00000000	      0.00000000
      6.17000000	    -14.75978819	      2.27310338	     -0.55364014	     -0.32633712	      0.81899199	     -1.01967640	     21.58460068	     -7.99393407	     -5.32615092	     90.87495465	      1.58606717	    -10.33962091	      0.00000000	      0.00000000	     47.19540498	      3.44653447	     -8.94050732	     59.93029592	      1.04598099	     19.41066309	      0.00000000	      0.00000000	    -10.13795858	     -4.57974324	      3.48933775	     18.33162626	     -8.37778810	      2.06008832	     11.97930514	     80.59583920	      0.00000000	      0.00000000	     11.50107867	    -15.55698542	      9.06331121	     37.05544096	     85.53587860	      0.00000000	      0.00000000
      6.17500000	    -14.66692929	      2.21340526	     -0.58512903	     -0.32572753	      0.81985390	     -1.01973971	     21.61223452	     -7.94855422	     -5.35424696	     90.92185453	      1.58688572	    -10.31852443	      0.00000000	      0.00000000	     46.96567751	      3.38852899	     -8.94047941	     59.75020373	      1.04283778	     19.37661604	      0.00000000	      0.00000000	    -10.03328697	     -4.49784638	      3.51958715	     17.77353839	     -8.37313128	      2.03058239	     11.75337156	     80.12816841	      0.00000000	      0.00000000	     10.95126395	    -15.44414388	      9.04107394	     36.68273624	     85.66912467	      0.00000000	      0.00000000
      6.18000000	    -14.44807518	      2.13134427	     -0.60875796	     -0.32509267	      0.82094442	     -1.01969536	     21.45831554	     -7.78334945	     -5.29283793	     90.88397203	      1.58622455	    -10.23872639	      0.00000000	      0.00000000	     46.57489747	      3.28623971	     -8.94360783	     59.56985869	      1.03969017	     19.16794806	      0.00000000	      0.00000000	    -10.07366609	     -4.40435402	      3.37306512	     17.42140543	     -8.32246631	      2.36388541	     11.31924850	     80.12520371	      0.00000000	      0.00000000	     10.46994339	    -15.18051066	      8.34804455	     35.97733408	     85.56039302	      0.00000000	      0.00000000
      6.18500000	    -14.30266559	      2.12073263	     -0.62487092	     -0.32445346	      0.82191618	     -1.01979372	     21.38166076	     -7.85926968	     -5.37803159	     90.85145053	      1.58565694	    -10.20738555	      0.00000000	      0.00000000	     46.25803932	      3.27576150	     -8.96416331	     59.37556890	      1.03629917	     19.16428564	      0.00000000	      0.00000000	    -10.03034498	     -4.38007407	      3.31058870	     16.93102502	     -8.31351642	      2.55691721	     11.09069749	     79.75553160	      0.00000000	      0.00000000	      9.91679925	    -15.05591125	      8.21118049	     35.46171278	     85.46393700	      0.00000000	      0.00000000
